<svg width="60" height="13" viewBox="0 0 60 13" fill="none" xmlns="http://www.w3.org/2000/svg">
<g opacity="0.95">
<mask id="mask0" mask-type="alpha" maskUnits="userSpaceOnUse" x="0" y="1" width="16" height="12">
<path fill-rule="evenodd" clip-rule="evenodd" d="M0 1L8 13L16 1H0Z" fill="white"/>
</mask>
<g mask="url(#mask0)">
<path fill-rule="evenodd" clip-rule="evenodd" d="M8 1C1.4 1 -4 6.4 -4 13C-4 19.6 1.4 25 8 25C14.6 25 20 19.6 20 13C20 6.4 14.6 1 8 1ZM8 22C3 22 -1 18 -1 13C-1 8 3 4 8 4C13 4 17 8 17 13C17 18 13 22 8 22Z" fill="white" fill-opacity="0.3"/>
<path fill-rule="evenodd" clip-rule="evenodd" d="M8 4C3 4 -1 8 -1 13C-1 18 3 22 8 22C13 22 17 18 17 13C17 8 13 4 8 4ZM8 19C4.7 19 2 16.3 2 13C2 9.7 4.7 7 8 7C11.3 7 14 9.7 14 13C14 16.3 11.3 19 8 19Z" fill="white" fill-opacity="0.9"/>
<path fill-rule="evenodd" clip-rule="evenodd" d="M8 7C4.7 7 2 9.7 2 13C2 16.3 4.7 19 8 19C11.3 19 14 16.3 14 13C14 9.7 11.3 7 8 7ZM8 16C6.3 16 5 14.7 5 13C5 11.3 6.3 10 8 10C9.7 10 11 11.3 11 13C11 14.7 9.7 16 8 16Z" fill="white" fill-opacity="0.9"/>
<path fill-rule="evenodd" clip-rule="evenodd" d="M8 16C9.657 16 11 14.6569 11 13C11 11.3431 9.657 10 8 10C6.343 10 5 11.3431 5 13C5 14.6569 6.343 16 8 16Z" fill="white" fill-opacity="0.9"/>
</g>
<mask id="mask1" mask-type="alpha" maskUnits="userSpaceOnUse" x="26" y="1" width="12" height="12">
<path fill-rule="evenodd" clip-rule="evenodd" d="M38 13V1L26 13H38Z" fill="white"/>
</mask>
<g mask="url(#mask1)">
<path fill-rule="evenodd" clip-rule="evenodd" d="M35 1V13H38V1H35Z" fill="white" fill-opacity="0.3"/>
<path fill-rule="evenodd" clip-rule="evenodd" d="M32 1V13H35V1H32Z" fill="white" fill-opacity="0.3"/>
<path fill-rule="evenodd" clip-rule="evenodd" d="M29 1V13H32V1H29Z" fill="white" fill-opacity="0.9"/>
<path fill-rule="evenodd" clip-rule="evenodd" d="M26 1V13H29V1H26Z" fill="white" fill-opacity="0.9"/>
</g>
<mask id="mask2" mask-type="alpha" maskUnits="userSpaceOnUse" x="52" y="0" width="8" height="13">
<path fill-rule="evenodd" clip-rule="evenodd" d="M59 1H58V0H54V1H53C52.4 1 52 1.4 52 2V12C52 12.6 52.4 13 53 13H59C59.6 13 60 12.6 60 12V2C60 1.4 59.6 1 59 1Z" fill="white"/>
</mask>
<g mask="url(#mask2)">
<path fill-rule="evenodd" clip-rule="evenodd" d="M52 10V13H60V10H52Z" fill="white" fill-opacity="0.9"/>
<path fill-rule="evenodd" clip-rule="evenodd" d="M52 7V10H60V7H52Z" fill="white" fill-opacity="0.9"/>
<path fill-rule="evenodd" clip-rule="evenodd" d="M52 4V7H60V4H52Z" fill="white" fill-opacity="0.3"/>
<path fill-rule="evenodd" clip-rule="evenodd" d="M52 1V4H60V1H52Z" fill="white" fill-opacity="0.3"/>
<path fill-rule="evenodd" clip-rule="evenodd" d="M54 0V1H58V0H54Z" fill="white" fill-opacity="0.3"/>
</g>
</g>
</svg>
