<svg width="18" height="18" viewBox="0 0 18 18" fill="none" xmlns="http://www.w3.org/2000/svg">
<path fill-rule="evenodd" clip-rule="evenodd" d="M12.502 11.5094H11.708L11.432 11.2354C12.407 10.0985 13 8.62454 13 7.00963C13 3.41983 10.09 0.51 6.5 0.51C2.91 0.51 0 3.41983 0 7.00963C0 10.5994 2.91 13.5093 6.5 13.5093C8.115 13.5093 9.588 12.9173 10.725 11.9433L11.001 12.2173V13.0093L15.999 18L17.49 16.5091L12.502 11.5094ZM6.5 11.5094C4.014 11.5094 2 9.49548 2 7.00962C2 4.52476 4.014 2.50988 6.5 2.50988C8.985 2.50988 11 4.52476 11 7.00962C11 9.49548 8.985 11.5094 6.5 11.5094Z" fill="black" fill-opacity="0.87"/>
</svg>
